<?xml version="1.0" standalone="no"?><!DOCTYPE svg PUBLIC "-//W3C//DTD SVG 1.1//EN" "http://www.w3.org/Graphics/SVG/1.1/DTD/svg11.dtd"><svg t="1598960869143" class="icon" viewBox="0 0 1217 1024" version="1.1" xmlns="http://www.w3.org/2000/svg" p-id="7275" xmlns:xlink="http://www.w3.org/1999/xlink" width="237.6953125" height="200"><defs><style type="text/css"></style></defs><path d="M469.27430328 790.64187928m-47.21609319 0a47.21609318 47.21609318 0 1 0 94.43218639 0 47.21609318 47.21609318 0 1 0-94.43218639 0Z" fill="#FBCB3B" p-id="7276"></path><path d="M757.22554166 790.64187928m-47.21609319 0a47.21609318 47.21609318 0 1 0 94.43218574 0 47.21609318 47.21609318 0 1 0-94.43218574 0Z" fill="#FBCB3B" p-id="7277"></path><path d="M865.0741561 599.25241947H366.50628638l-57.86405225-289.01603415h650.80326268l-94.37134071 289.01603415z" fill="#FBCB3B" p-id="7278"></path><path d="M266.78054329 222.03173459l51.36879736-8.95645505 88.43282162 507.22313962-51.36879735 8.95645442z" fill="#FF9C15" p-id="7279"></path><path d="M355.28029487 677.10421204h488.34582901v52.1141544H355.28029487zM186.11160469 207.46532593L313.54637967 186.13898504l8.60659349 51.42964301-127.43477497 21.32634091z" fill="#FF9C15" p-id="7280"></path></svg>