<?xml version="1.0" standalone="no"?><!DOCTYPE svg PUBLIC "-//W3C//DTD SVG 1.1//EN" "http://www.w3.org/Graphics/SVG/1.1/DTD/svg11.dtd"><svg t="1598960814765" class="icon" viewBox="0 0 1024 1024" version="1.1" xmlns="http://www.w3.org/2000/svg" p-id="3389" xmlns:xlink="http://www.w3.org/1999/xlink" width="200" height="200"><defs><style type="text/css"></style></defs><path d="M819.968 269.5168h-38.3488V213.3504c0-42.6496-34.7136-77.3632-77.3632-77.3632H202.4448c-42.6496 0-77.3632 34.7136-77.3632 77.3632v546.3552c0 19.0976 10.7008 36.0448 27.9552 44.2368 6.7584 3.2256 13.9264 4.7616 21.0432 4.7616 11.008 0 21.9136-3.7888 30.8736-11.1104l74.4448-60.928v2.9696c0 40.4992 32.9216 73.472 73.4208 73.472h360.9088c7.4752 0 14.7968 2.6112 20.5824 7.3216l82.432 67.4304a46.57664 46.57664 0 0 0 29.6448 10.7008c6.8096 0 13.7216-1.4848 20.224-4.608 16.5376-7.8336 26.8288-24.1152 26.8288-42.4448V342.9376c0-40.4992-32.9728-73.4208-73.472-73.4208z m-226.4064 131.0208c16.9472 0 30.72 13.7728 30.72 30.72s-13.7728 30.72-30.72 30.72-30.72-13.7728-30.72-30.72 13.7728-30.72 30.72-30.72z m-139.1616 0c16.9472 0 30.72 13.7728 30.72 30.72s-13.7728 30.72-30.72 30.72-30.72-13.7728-30.72-30.72 13.7728-30.72 30.72-30.72z m-169.8816 30.72c0-16.9472 13.7728-30.72 30.72-30.72s30.72 13.7728 30.72 30.72-13.7728 30.72-30.72 30.72-30.72-13.7216-30.72-30.72z m567.9616 420.2496c0 3.1232-1.8432 4.7104-3.4304 5.4272-1.536 0.7168-3.9424 1.2288-6.3488-0.768l-82.432-67.4304a73.6768 73.6768 0 0 0-46.4896-16.5888H352.8704c-17.92 0-32.4608-14.592-32.4608-32.512v-22.7328h383.8976c42.6496 0 77.3632-34.7136 77.3632-77.3632V310.4768h38.3488c17.92 0 32.512 14.592 32.512 32.512v508.5184z" fill="#9fc6ff" p-id="3390"></path></svg>