<?xml version="1.0" standalone="no"?><!DOCTYPE svg PUBLIC "-//W3C//DTD SVG 1.1//EN" "http://www.w3.org/Graphics/SVG/1.1/DTD/svg11.dtd"><svg t="1598957206169" class="icon" viewBox="0 0 1024 1024" version="1.1" xmlns="http://www.w3.org/2000/svg" p-id="2781" xmlns:xlink="http://www.w3.org/1999/xlink" width="200" height="200"><defs><style type="text/css"></style></defs><path d="M351.988168 131.844817c-22.174022 0-45.686529 23.411199-45.686529 45.686529l0 639.606283c0 22.37459 24.00267 45.686529 45.686529 45.686529l319.803653 0c20.455891 0 45.685505-23.433712 45.685505-45.686529L717.477326 177.530322c0-22.397103-23.556509-45.686529-45.685505-45.686529M466.203466 177.530322l114.216321 0c12.625552 0 22.596647 5.097088 22.596647 11.432377 0 6.312776-11.912307 11.409864-22.596647 11.409864L443.360202 200.372563c-11.45489 0-22.508643-5.097088-22.508643-11.409864 0-6.335289 11.165294-11.432377 22.508643-11.432377L466.203466 177.530322zM512.06805 817.260425c-12.224416 0-23.155373-10.151197-23.155373-22.954805 0-12.805654 10.930957-23.010063 23.155373-23.010063 12.893658 0 22.833031 10.205433 22.833031 23.010063C534.901081 807.109228 524.961708 817.260425 512.06805 817.260425L512.06805 817.260425zM671.791821 725.764572l-319.803653 0L351.988168 246.059092l319.803653 0L671.791821 725.764572z" p-id="2782" fill="#ffffff"></path></svg>