<?xml version="1.0" standalone="no"?><!DOCTYPE svg PUBLIC "-//W3C//DTD SVG 1.1//EN" "http://www.w3.org/Graphics/SVG/1.1/DTD/svg11.dtd"><svg t="1598960853381" class="icon" viewBox="0 0 1024 1024" version="1.1" xmlns="http://www.w3.org/2000/svg" p-id="5833" xmlns:xlink="http://www.w3.org/1999/xlink" width="200" height="200"><defs><style type="text/css"></style></defs><path d="M924.8 336l-208 128c-3.2 3.2-3.2 3.2-6.4 0L512 211.2c-3.2-3.2-3.2-3.2-6.4 0l-224 252.8c-3.2 3.2-3.2 3.2-6.4 0l-179.2-128c-3.2-3.2-6.4 0-6.4 3.2L160 793.6c0 6.4 6.4 9.6 12.8 9.6h662.4c6.4 0 9.6-3.2 12.8-9.6l83.2-451.2c0-6.4-3.2-9.6-6.4-6.4zM806.4 857.6H201.6c-16 0-32 12.8-32 32v22.4c0 16 12.8 32 32 32h608c16 0 32-12.8 28.8-32v-22.4c0-16-16-32-32-32z" fill="#F5AB16" p-id="5834"></path><path d="M57.6 278.4m-57.6 0a57.6 57.6 0 1 0 115.2 0 57.6 57.6 0 1 0-115.2 0Z" fill="#F5AB16" p-id="5835"></path><path d="M512 140.8m-57.6 0a57.6 57.6 0 1 0 115.2 0 57.6 57.6 0 1 0-115.2 0Z" fill="#F5AB16" p-id="5836"></path><path d="M966.4 278.4m-57.6 0a57.6 57.6 0 1 0 115.2 0 57.6 57.6 0 1 0-115.2 0Z" fill="#F5AB16" p-id="5837"></path></svg>