<?xml version="1.0" standalone="no"?>
<!DOCTYPE svg PUBLIC "-//W3C//DTD SVG 1.1//EN" "http://www.w3.org/Graphics/SVG/1.1/DTD/svg11.dtd"><svg class="icon"
  width="200px" height="200.00px" viewBox="0 0 1024 1024" version="1.1" xmlns="http://www.w3.org/2000/svg">
  <path fill="#000"
    d="M524.151058 117.586267c-7.124056 5.839457-16.865341 5.887489-24.013924 0.14614l414.68321 333.106587c11.860822 9.527697 29.198307 7.636056 38.726004-4.224766 9.527697-11.860822 7.636056-29.198307-4.224766-38.726004L534.638371 74.781637c-13.164838-10.57418-32.38681-10.479138-45.411641 0.197238L74.466874 414.945852c-11.76578 9.6442-13.485733 27.00008-3.841533 38.76586 9.6442 11.76578 27.00008 13.485733 38.76586 3.841533L524.151058 117.586267zM949.321581 559.389126l-414.68321-333.106587c-13.164838-10.57418-32.38681-10.479138-45.411641 0.197238L74.466874 566.446754c-11.76578 9.6442-13.485733 27.00008-3.841533 38.76586 9.6442 11.76578 27.00008 13.485733 38.76586 3.841533l58.288287-47.777469 0 315.732311c0 45.630339 37.014228 82.607776 82.660918 82.607776L422.476647 959.616766l27.545804 0 0-27.545804 0-188.356727c0-7.615617 6.163417-13.783122 13.756551-13.783122l96.443018 0c7.5962 0 13.756551 6.164439 13.756551 13.783122l0 188.356727L573.978571 959.616766 601.523353 959.616766l172.13624 0c45.671218 0 82.660918-36.969261 82.660918-82.607776L856.320511 555.347289l58.499832 46.991585c11.860822 9.527697 29.198307 7.636056 38.726004-4.224766C963.073022 586.254307 961.182403 568.9158 949.321581 559.389126zM801.228902 877.00899c0 15.205685-12.317637 27.516168-27.569309 27.516168L629.069158 904.525158 629.069158 743.714236c0-38.035162-30.816064-68.873709-68.847138-68.873709l-96.443018 0c-38.026986 0-68.847138 30.840591-68.847138 68.873709l0 160.810922L250.340407 904.525158c-15.232255 0-27.569309-12.32479-27.569309-27.516168L222.771098 516.119505l289.404679-237.216447 289.054148 232.190467L801.229924 877.00899z" />
  </svg>