<?xml version="1.0" standalone="no"?><!DOCTYPE svg PUBLIC "-//W3C//DTD SVG 1.1//EN" "http://www.w3.org/Graphics/SVG/1.1/DTD/svg11.dtd"><svg class="icon" width="200px" height="200.00px" viewBox="0 0 1024 1024" version="1.1" xmlns="http://www.w3.org/2000/svg"><path fill="#d4237a" d="M511.975619 29.598476c-269.312 0-487.619048 218.258286-487.619048 487.594667 0 269.360762 218.307048 487.643429 487.619048 487.643429 269.336381 0 487.66781-218.282667 487.66781-487.643429C999.643429 247.881143 781.312 29.598476 511.975619 29.598476L511.975619 29.598476zM511.975619 70.217143 511.975619 70.217143c246.467048 0 447.000381 200.533333 447.000381 446.976 0 108.422095-38.863238 207.993905-103.326476 285.45219-44.568381-18.627048-149.77219-55.149714-214.869333-74.337524-5.558857-1.755429-6.436571-2.048-6.436571-25.185524 0-19.041524 7.826286-38.278095 15.506286-54.51581 8.289524-17.724952 18.115048-47.420952 21.674667-74.093714 9.874286-11.483429 23.332571-34.084571 31.98781-77.190095 7.606857-38.058667 4.071619-51.858286-0.975238-64.828952-0.512-1.389714-1.048381-2.730667-1.487238-4.047238-1.901714-8.923429 0.707048-55.222857 7.241143-91.111619 4.486095-24.673524-1.145905-77.06819-35.08419-120.393143-21.430857-27.428571-62.439619-61.049905-137.313524-65.731048l-41.081905 0.048762c-73.606095 4.632381-114.614857 38.253714-136.045714 65.682286-33.962667 43.300571-39.570286 95.719619-35.08419 120.368762 6.582857 35.937524 9.118476 82.212571 7.265524 90.940952-0.414476 1.511619-0.926476 2.852571-1.511619 4.242286-4.998095 12.970667-8.582095 26.794667-0.950857 64.828952 8.630857 43.081143 22.040381 65.706667 32.01219 77.190095 3.486476 26.672762 13.336381 56.393143 21.625905 74.093714 6.095238 12.897524 8.94781 30.524952 8.94781 55.417905 0 23.04-0.853333 23.381333-6.070857 24.990476-67.364571 19.846095-174.518857 58.61181-214.503619 76.141714-65.706667-77.848381-105.472-178.322286-105.472-287.98781C64.975238 270.750476 265.508571 70.217143 511.975619 70.217143L511.975619 70.217143zM199.92381 836.803048 199.92381 836.803048c45.738667-18.67581 136.97219-51.2 196.87619-68.900571 34.864762-10.99581 34.864762-40.326095 34.864762-63.853714 0-19.577905-1.365333-48.420571-12.775619-72.752762-7.850667-16.725333-16.822857-45.275429-18.797714-67.705905-0.438857-5.241905-2.852571-10.044952-6.851048-13.482667-5.753905-5.095619-17.481143-23.527619-24.917333-60.732952-5.924571-29.476571-3.413333-35.937524-0.999619-42.154667 1.048381-2.657524 2.048-5.266286 2.82819-8.240762 4.85181-17.822476-0.536381-76.434286-6.485333-108.934095-2.56-14.116571 0.658286-54.223238 27.111619-88.088381 23.673905-30.281143 59.538286-47.152762 105.301333-50.078476l38.521905-0.048762c46.982095 2.974476 82.846476 19.821714 106.569143 50.127238 26.428952 33.889524 29.671619 73.97181 27.062857 88.088381-5.87581 32.49981-11.337143 91.087238-6.460952 108.934095 0.853333 2.974476 1.77981 5.583238 2.80381 8.240762 2.438095 6.241524 4.924952 12.702476-0.950857 42.154667-7.460571 37.180952-19.21219 55.637333-24.941714 60.732952-3.949714 3.437714-6.38781 8.240762-6.851048 13.482667-1.950476 22.430476-10.898286 51.004952-18.797714 67.705905-8.996571 19.139048-19.358476 44.617143-19.358476 71.850667 0 23.625143 0 52.955429 35.181714 64.048762 57.368381 16.896 149.016381 48.420571 197.436952 67.486476-80.822857 80.042667-191.902476 129.560381-314.343619 129.560381C390.680381 964.242286 280.551619 915.577905 199.92381 836.803048z" /></svg>